<?xml version="1.0" encoding="utf-8"?>
<!-- Generator: Adobe Illustrator 18.1.0, SVG Export Plug-In . SVG Version: 6.00 Build 0)  -->
<!DOCTYPE svg PUBLIC "-//W3C//DTD SVG 1.1//EN" "http://www.w3.org/Graphics/SVG/1.1/DTD/svg11.dtd">
<svg version="1.1" xmlns="http://www.w3.org/2000/svg" xmlns:xlink="http://www.w3.org/1999/xlink" x="0px" y="0px"
	 viewBox="0 0 400 400" enable-background="new 0 0 400 400" xml:space="preserve">
<g id="portfolio">
</g>
<g id="inbox">
</g>
<g id="notepad">
</g>
<g id="home">
</g>
<g id="instagram">
	<path fill-rule="evenodd" clip-rule="evenodd" fill="#FFF200" d="M299.032,274.277v12.375c0,6.837-5.542,12.379-12.379,12.379
		h-12.376c-0.001,0-0.001,0-0.003,0H125.726h-0.001h-12.378c-6.837,0-12.379-5.542-12.379-12.379v-37.137c0-0.001,0-0.001,0-0.002
		v-86.648c0-0.001,0-0.001,0-0.002v-49.516c0-6.837,5.542-12.379,12.379-12.379h49.516c0.001,0,0.001,0,0.002,0h74.269
		c0.001,0,0.002,0,0.002,0h49.516c6.837,0,12.379,5.542,12.379,12.379v12.376c0,0.001,0,0.002,0,0.002v148.548
		C299.032,274.275,299.032,274.276,299.032,274.277z M200,175.242c-22.796,0-24.758,24.758-24.758,24.758
		s-0.718,24.758,24.758,24.758c25.477,0,24.758-24.758,24.758-24.758S222.797,175.242,200,175.242z M274.274,125.726h-37.137v37.137
		h37.137V125.726z M274.274,200v-0.001v-12.378h-24.758l0,0h-1.75c1.03,3.977,1.75,8.076,1.75,12.375V200l0,0l0,0
		c0,27.348-22.168,49.516-49.516,49.516c-27.346,0-49.516-22.168-49.516-49.516c0-4.3,0.72-8.4,1.752-12.379h-1.752l0,0h-24.758
		v86.653h24.758h12.379l0,0h74.274l0,0h37.137v-37.137l0,0V200z"/>
</g>
</svg>
