<?xml version="1.0" encoding="utf-8"?>
<!-- Generator: Adobe Illustrator 18.1.0, SVG Export Plug-In . SVG Version: 6.00 Build 0)  -->
<!DOCTYPE svg PUBLIC "-//W3C//DTD SVG 1.1//EN" "http://www.w3.org/Graphics/SVG/1.1/DTD/svg11.dtd">
<svg version="1.1" xmlns="http://www.w3.org/2000/svg" xmlns:xlink="http://www.w3.org/1999/xlink" x="0px" y="0px"
	 viewBox="0 0 400 400" enable-background="new 0 0 400 400" xml:space="preserve">
<g id="portfolio">
</g>
<g id="inbox">
</g>
<g id="notepad">
</g>
<g id="home">
	<path fill-rule="evenodd" clip-rule="evenodd" fill="#FFF200" d="M286.653,224.783h-12.379v61.895
		c0,6.837-5.542,12.379-12.379,12.379h-123.79c-6.837,0-12.379-5.542-12.379-12.379v-61.895h-12.379
		c-6.836,0-12.379-5.542-12.379-12.379v-12.379V187.95c-0.305-3.659,0.782-7.404,3.582-10.205l21.175-21.174v-55.578h12.379h12.379
		h12.379v18.441l14.858-14.858c2.8-2.8,6.545-3.887,10.204-3.582H200h12.074c3.66-0.305,7.405,0.782,10.205,3.582l73.17,73.17
		c2.8,2.801,3.887,6.546,3.582,10.205v12.074v12.379C299.032,219.241,293.49,224.783,286.653,224.783z M274.274,193.156
		l-67.403-67.405H200h-6.869l-67.405,67.405v6.869h12.379h12.379v24.758v49.516h24.758v-49.516h49.516v49.516h24.758v-49.516
		v-24.758h12.379h12.379V193.156z"/>
</g>
<g id="instagram">
</g>
</svg>
