<?xml version="1.0" encoding="utf-8"?>
<!-- Generator: Adobe Illustrator 18.1.0, SVG Export Plug-In . SVG Version: 6.00 Build 0)  -->
<!DOCTYPE svg PUBLIC "-//W3C//DTD SVG 1.1//EN" "http://www.w3.org/Graphics/SVG/1.1/DTD/svg11.dtd">
<svg version="1.1" xmlns="http://www.w3.org/2000/svg" xmlns:xlink="http://www.w3.org/1999/xlink" x="0px" y="0px"
	 viewBox="0 0 400 400" enable-background="new 0 0 400 400" xml:space="preserve">
<g id="portfolio">
	<g>
		<path fill-rule="evenodd" clip-rule="evenodd" fill="#FFF200" d="M286.653,138.105H113.347c-6.837,0-12.379,5.542-12.379,12.379
			v136.169c0,6.837,5.542,12.379,12.379,12.379h173.306c6.837,0,12.379-5.542,12.379-12.379V150.484
			C299.032,143.647,293.49,138.105,286.653,138.105z M274.274,274.274H125.726v-49.516h148.548V274.274z M274.274,212.379H125.726
			v-49.516h148.548V212.379z"/>
		<path fill-rule="evenodd" clip-rule="evenodd" fill="#FFF200" d="M175.242,200h49.516v37.137h-49.516V200z"/>
		<path fill-rule="evenodd" clip-rule="evenodd" fill="#FFF200" d="M224.758,100.968h-49.516c-6.837,0-12.379,5.542-12.379,12.379
			v37.137c0,6.837,5.542,12.379,12.379,12.379h49.516c6.837,0,12.379-5.542,12.379-12.379v-37.137
			C237.137,106.51,231.595,100.968,224.758,100.968z M212.379,138.105h-24.758v-12.379h24.758V138.105z"/>
	</g>
</g>
<g id="inbox">
</g>
<g id="notepad">
</g>
<g id="home">
</g>
<g id="instagram">
</g>
</svg>
