<?xml version="1.0" encoding="utf-8"?>
<!-- Generator: Adobe Illustrator 18.1.0, SVG Export Plug-In . SVG Version: 6.00 Build 0)  -->
<!DOCTYPE svg PUBLIC "-//W3C//DTD SVG 1.1//EN" "http://www.w3.org/Graphics/SVG/1.1/DTD/svg11.dtd">
<svg version="1.1" xmlns="http://www.w3.org/2000/svg" xmlns:xlink="http://www.w3.org/1999/xlink" x="0px" y="0px"
	 viewBox="0 0 400 400" enable-background="new 0 0 400 400" xml:space="preserve">
<g id="portfolio">
</g>
<g id="inbox">
	<path fill-rule="evenodd" clip-rule="evenodd" fill="#FFF200" d="M299.032,274.277v12.375c0,6.837-5.542,12.379-12.379,12.379
		h-12.376c-0.001,0-0.001,0-0.003,0H125.726c0,0-0.001,0-0.002,0h-12.376c-6.837,0-12.379-5.542-12.379-12.379V113.347
		c0-6.837,5.542-12.379,12.379-12.379h24.758c0.001,0,0.001,0,0.002,0h123.785c0.001,0,0.003,0,0.003,0h24.758
		c6.837,0,12.379,5.542,12.379,12.379v12.376c0,0.001,0,0.001,0,0.002v148.548C299.032,274.275,299.032,274.276,299.032,274.277z
		 M274.274,125.726h-24.758l0,0h-99.032l0,0h-24.758v111.411h24.758h12.379v12.376v24.76h12.378c0.001,0,0.001,0,0.001,0h49.516
		c0.001,0,0.001,0,0.001,0h12.378v-12.378v-24.759h12.379h24.758V125.726z M150.484,187.621h99.032v24.758h-99.032V187.621z
		 M150.484,150.484h99.032v24.758h-99.032V150.484z"/>
</g>
<g id="notepad">
</g>
<g id="home">
</g>
<g id="instagram">
</g>
</svg>
