<svg xmlns="http://www.w3.org/2000/svg">
  <symbol viewBox="0 0 400 400" id="symbol-icon_home">
    <title>icon_home</title>
    <g id="icon_home-home">
      <path fill-rule="evenodd" clip-rule="evenodd" fill="#FFF200" d="M286.653,224.783h-12.379v61.895
		c0,6.837-5.542,12.379-12.379,12.379h-123.79c-6.837,0-12.379-5.542-12.379-12.379v-61.895h-12.379
		c-6.836,0-12.379-5.542-12.379-12.379v-12.379V187.95c-0.305-3.659,0.782-7.404,3.582-10.205l21.175-21.174v-55.578h12.379h12.379
		h12.379v18.441l14.858-14.858c2.8-2.8,6.545-3.887,10.204-3.582H200h12.074c3.66-0.305,7.405,0.782,10.205,3.582l73.17,73.17
		c2.8,2.801,3.887,6.546,3.582,10.205v12.074v12.379C299.032,219.241,293.49,224.783,286.653,224.783z M274.274,193.156
		l-67.403-67.405H200h-6.869l-67.405,67.405v6.869h12.379h12.379v24.758v49.516h24.758v-49.516h49.516v49.516h24.758v-49.516
		v-24.758h12.379h12.379V193.156z" /> </g>
  </symbol>
  <symbol viewBox="0 0 400 400" id="symbol-icon_inbox">
    <title>icon_inbox</title>
    <g id="icon_inbox-inbox">
      <path fill-rule="evenodd" clip-rule="evenodd" fill="#FFF200" d="M299.032,274.277v12.375c0,6.837-5.542,12.379-12.379,12.379
		h-12.376c-0.001,0-0.001,0-0.003,0H125.726c0,0-0.001,0-0.002,0h-12.376c-6.837,0-12.379-5.542-12.379-12.379V113.347
		c0-6.837,5.542-12.379,12.379-12.379h24.758c0.001,0,0.001,0,0.002,0h123.785c0.001,0,0.003,0,0.003,0h24.758
		c6.837,0,12.379,5.542,12.379,12.379v12.376c0,0.001,0,0.001,0,0.002v148.548C299.032,274.275,299.032,274.276,299.032,274.277z
		 M274.274,125.726h-24.758l0,0h-99.032l0,0h-24.758v111.411h24.758h12.379v12.376v24.76h12.378c0.001,0,0.001,0,0.001,0h49.516
		c0.001,0,0.001,0,0.001,0h12.378v-12.378v-24.759h12.379h24.758V125.726z M150.484,187.621h99.032v24.758h-99.032V187.621z
		 M150.484,150.484h99.032v24.758h-99.032V150.484z" /> </g>
  </symbol>
  <symbol viewBox="0 0 400 400" id="symbol-icon_instagram">
    <title>icon_instagram</title>
    <g id="icon_instagram-instagram">
      <path fill-rule="evenodd" clip-rule="evenodd" fill="#FFF200" d="M299.032,274.277v12.375c0,6.837-5.542,12.379-12.379,12.379
		h-12.376c-0.001,0-0.001,0-0.003,0H125.726h-0.001h-12.378c-6.837,0-12.379-5.542-12.379-12.379v-37.137c0-0.001,0-0.001,0-0.002
		v-86.648c0-0.001,0-0.001,0-0.002v-49.516c0-6.837,5.542-12.379,12.379-12.379h49.516c0.001,0,0.001,0,0.002,0h74.269
		c0.001,0,0.002,0,0.002,0h49.516c6.837,0,12.379,5.542,12.379,12.379v12.376c0,0.001,0,0.002,0,0.002v148.548
		C299.032,274.275,299.032,274.276,299.032,274.277z M200,175.242c-22.796,0-24.758,24.758-24.758,24.758
		s-0.718,24.758,24.758,24.758c25.477,0,24.758-24.758,24.758-24.758S222.797,175.242,200,175.242z M274.274,125.726h-37.137v37.137
		h37.137V125.726z M274.274,200v-0.001v-12.378h-24.758l0,0h-1.75c1.03,3.977,1.75,8.076,1.75,12.375V200l0,0l0,0
		c0,27.348-22.168,49.516-49.516,49.516c-27.346,0-49.516-22.168-49.516-49.516c0-4.3,0.72-8.4,1.752-12.379h-1.752l0,0h-24.758
		v86.653h24.758h12.379l0,0h74.274l0,0h37.137v-37.137l0,0V200z" /> </g>
  </symbol>
  <symbol viewBox="0 0 400 400" id="symbol-icon_notepad">
    <title>icon_notepad</title>
    <g id="icon_notepad-notepad">
      <g>
        <path fill-rule="evenodd" clip-rule="evenodd" fill="#FFF200" d="M286.653,125.726H113.347c-6.837,0-12.379,5.542-12.379,12.379
			v148.548c0,6.837,5.542,12.379,12.379,12.379h173.305c6.837,0,12.379-5.542,12.379-12.379V138.105
			C299.032,131.268,293.49,125.726,286.653,125.726z M274.274,274.274H125.726v-123.79h148.547V274.274z" />
        <path fill-rule="evenodd" clip-rule="evenodd" fill="#FFF200" d="M138.105,100.968h24.758v61.895h-24.758V100.968z" />
        <path fill-rule="evenodd" clip-rule="evenodd" fill="#FFF200" d="M187.621,100.968h24.758v61.895h-24.758V100.968z" />
        <path fill-rule="evenodd" clip-rule="evenodd" fill="#FFF200" d="M237.137,100.968h24.758v61.895h-24.758V100.968z" /> </g>
    </g>
  </symbol>
  <symbol viewBox="0 0 400 400" id="symbol-icon_portfolio">
    <title>icon_portfolio</title>
    <g id="icon_portfolio-portfolio">
      <g>
        <path fill-rule="evenodd" clip-rule="evenodd" fill="#FFF200" d="M286.653,138.105H113.347c-6.837,0-12.379,5.542-12.379,12.379
			v136.169c0,6.837,5.542,12.379,12.379,12.379h173.306c6.837,0,12.379-5.542,12.379-12.379V150.484
			C299.032,143.647,293.49,138.105,286.653,138.105z M274.274,274.274H125.726v-49.516h148.548V274.274z M274.274,212.379H125.726
			v-49.516h148.548V212.379z" />
        <path fill-rule="evenodd" clip-rule="evenodd" fill="#FFF200" d="M175.242,200h49.516v37.137h-49.516V200z" />
        <path fill-rule="evenodd" clip-rule="evenodd" fill="#FFF200" d="M224.758,100.968h-49.516c-6.837,0-12.379,5.542-12.379,12.379
			v37.137c0,6.837,5.542,12.379,12.379,12.379h49.516c6.837,0,12.379-5.542,12.379-12.379v-37.137
			C237.137,106.51,231.595,100.968,224.758,100.968z M212.379,138.105h-24.758v-12.379h24.758V138.105z" /> </g>
    </g>
  </symbol>
</svg>